IKResults
version=1
nRows=14
nColumns=40
inDegrees=yes

Units are S.I. units (second, meters, Newtons, ...)
Angles are in degrees.

endheader
time	pelvis_tilt	pelvis_list	pelvis_rotation	pelvis_tx	pelvis_ty	pelvis_tz	hip_flexion_r	hip_adduction_r	hip_rotation_r	knee_angle_r	knee_angle_r_beta	ankle_angle_r	subtalar_angle_r	mtp_angle_r	hip_flexion_l	hip_adduction_l	hip_rotation_l	knee_angle_l	knee_angle_l_beta	ankle_angle_l	subtalar_angle_l	mtp_angle_l	lumbar_extension	lumbar_bending	lumbar_rotation	arm_flex_r	arm_add_r	arm_rot_r	elbow_flex_r	pro_sup_r	wrist_flex_r	wrist_dev_r	arm_flex_l	arm_add_l	arm_rot_l	elbow_flex_l	pro_sup_l	wrist_flex_l	wrist_dev_l
      0.82000000	     14.34392186	     -2.24198963	      6.85883164	      0.32306781	      0.91150847	     -1.05752874	     12.30827588	      0.33111685	    -27.56762847	    -17.80635065	     -0.31077945	      4.82983255	      2.67629688	    -10.54230060	    -28.73889347	      4.56684315	      4.61425322	    -23.82429678	     -0.41581242	     13.69051602	      7.22696750	     -8.01194227	    -20.89901061	      5.10261068	     -8.92911446	    -14.89748408	     -9.39212483	    -13.21821200	     12.03974335	     89.95437384	      0.00000000	      0.00000000	     10.31904268	     15.91038999	      0.58115579	     58.34715847	     89.95437384	      0.00000000	      0.00000000
      0.83000000	     14.42251289	     -2.13259095	      7.15778656	      0.34007208	      0.91099227	     -1.05724341	     12.10702942	      0.33029432	    -26.67327556	    -19.47466029	     -0.33989694	      4.07183293	      1.07291538	     -9.97094947	    -28.71065259	      4.78217907	      3.66360535	    -25.90292526	     -0.45209133	     11.79617682	      7.67582142	     -7.64693551	    -20.69384352	      5.18417159	     -9.07279584	    -15.12472931	     -9.49719951	    -13.06826758	     11.99730728	     89.95437384	      0.00000000	      0.00000000	     10.11338513	     15.67157148	      0.80984227	     58.80361935	     89.95437384	      0.00000000	      0.00000000
      0.84000000	     14.61702969	     -2.10313347	      7.49792321	      0.35659278	      0.91126840	     -1.05701243	     11.88596795	      0.25599951	    -26.67323051	    -20.90719795	     -0.36489944	      1.71676206	     -1.27341918	     -9.03206659	    -28.58244654	      4.97941834	      2.41575206	    -28.18879217	     -0.49198724	      9.42127960	      8.81302409	     -7.19823480	    -20.69093319	      5.41662756	     -9.22860246	    -15.21162936	     -9.61323115	    -12.73040773	     12.03864931	     89.95437384	      0.00000000	      0.00000000	      9.91904762	     15.25179611	      1.24003146	     58.98675070	     89.95437384	      0.00000000	      0.00000000
      0.85000000	     14.89144547	     -2.42349854	      7.80827999	      0.37285239	      0.91232908	     -1.05638463	     11.30918125	      0.99685425	    -24.52877274	    -21.29992524	     -0.37175383	      0.05781290	     -5.81459579	     -8.12559302	    -28.35501909	      5.31213822	      0.73197288	    -30.69604952	     -0.53574713	      7.01054607	     11.18938953	     -6.59889202	    -20.80054311	      5.99372649	     -9.35888115	    -14.95162258	     -9.77015658	    -12.60659558	     11.92503207	     89.95437384	      0.00000000	      0.00000000	      9.60642231	     14.76014315	      1.95534841	     58.98426525	     89.95437384	      0.00000000	      0.00000000
      0.86000000	     15.24031174	     -2.65843896	      7.80195107	      0.38963396	      0.91373002	     -1.05555727	     10.90141357	      1.10596499	    -24.02846901	    -23.11054019	     -0.40335502	     -0.42327331	     -6.67581041	     -7.75889405	    -27.92031501	      5.76498988	      0.80572677	    -33.48090193	     -0.58435198	      3.36059893	     11.55523487	     -6.13128124	    -20.93243613	      6.39554708	     -9.05760585	    -14.92859155	     -9.95346749	    -12.30611541	     12.11044746	     89.95437384	      0.00000000	      0.00000000	      9.44947787	     14.24420675	      2.27848462	     58.46968130	     89.95437384	      0.00000000	      0.00000000
      0.87000000	     15.65511466	     -3.08286365	      7.86883952	      0.40638901	      0.91573181	     -1.05476713	     10.16414897	      1.53332052	    -23.69531773	    -24.66860556	     -0.43054839	     -0.91145891	     -7.60861541	     -7.35919914	    -27.34898158	      6.42252229	      0.86323588	    -36.22976125	     -0.63232862	     -0.79865236	     12.36799449	     -5.60728901	    -21.12713461	      7.03213252	     -8.82518870	    -14.72634720	    -10.17648825	    -11.75401131	     12.22225060	     89.95437384	      0.00000000	      0.00000000	      9.08834948	     13.64101778	      2.83380998	     57.91937123	     89.95437384	      0.00000000	      0.00000000
      0.88000000	     16.26287937	     -3.99223289	      7.93500441	      0.42304756	      0.91846993	     -1.05341750	      8.73740726	      3.10052487	    -22.36389373	    -24.78287264	     -0.43254273	     -1.48982856	     -9.84078870	     -5.99687078	    -26.85346298	      7.71920251	      1.33290905	    -38.81536600	     -0.67745594	     -4.61864382	     12.91848246	     -4.86062982	    -21.52565119	      8.14853013	     -8.54369746	    -14.53778359	    -10.60229310	     -9.91653182	     12.74900788	     89.95437384	      0.00000000	      0.00000000	      8.56896871	     12.98247583	      3.69425046	     57.33862623	     89.95437384	      0.00000000	      0.00000000
      0.89000000	     16.70585712	     -4.37094792	      7.77919565	      0.43945114	      0.92115028	     -1.05225845	      7.55076387	      3.77908157	    -21.76084568	    -25.33042835	     -0.44209938	     -1.07677011	     -9.39053900	     -5.79606079	    -26.23306219	      8.21649016	      1.25507043	    -41.12905559	     -0.71783744	     -8.04677354	     13.53012391	     -4.46308181	    -21.82860879	      8.65215019	     -8.13927291	    -14.13574229	    -10.83330449	     -9.58090898	     13.00721397	     89.95437384	      0.00000000	      0.00000000	      8.15258966	     12.33898008	      4.29896624	     56.40830042	     89.95437384	      0.00000000	      0.00000000
      0.90000000	     17.10786027	     -4.74298808	      7.61627145	      0.45553647	      0.92381514	     -1.05094403	      6.24835394	      4.61870580	    -20.83087935	    -25.55096156	     -0.44594841	     -0.46548446	     -9.18673422	     -5.53667744	    -25.48388788	      8.64107506	      0.89704303	    -43.45929446	     -0.75850778	    -10.87988948	     13.93982437	     -4.17618867	    -22.12656764	      9.12121327	     -7.75437899	    -13.74263132	    -11.08194882	     -9.08233427	     13.54227577	     89.95437384	      0.00000000	      0.00000000	      7.73734506	     11.80184487	      4.79531463	     55.37213629	     89.95437384	      0.00000000	      0.00000000
      0.91000000	     17.40186931	     -4.98963407	      7.46217991	      0.47121292	      0.92634997	     -1.04966823	      4.94668192	      5.31998532	    -20.16173716	    -25.57732435	     -0.44640852	      0.20791654	     -9.53660255	     -5.21207107	    -24.49288519	      8.83768823	      0.22426028	    -45.84527064	     -0.80015092	    -14.10718934	     14.31145076	     -3.92888032	    -22.35135974	      9.44330559	     -7.42677608	    -13.29157567	    -11.31415622	     -8.60077137	     14.15602023	     89.95437384	      0.00000000	      0.00000000	      7.27747123	     11.27718064	      5.26514160	     54.22512944	     89.95437384	      0.00000000	      0.00000000
      0.92000000	     17.59586868	     -5.17544151	      7.31585208	      0.48635969	      0.92881318	     -1.04821172	      3.56168825	      5.98678353	    -19.60229826	    -25.16807313	     -0.43926574	      0.80718221	     -9.86455697	     -4.88330390	    -23.29001346	      8.87079299	     -0.66035062	    -48.20769894	     -0.84138307	    -15.59138378	     15.13397605	     -3.73902451	    -22.50821863	      9.65452662	     -7.10600092	    -12.82155090	    -11.49131264	     -7.83269308	     14.84375684	     89.95437384	      0.00000000	      0.00000000	      6.91557886	     10.83062937	      5.58955197	     52.84297749	     89.95437384	      0.00000000	      0.00000000
      0.93000000	     17.63390579	     -5.21521626	      7.13671356	      0.50104349	      0.93117316	     -1.04696691	      2.33223735	      6.41099920	    -19.10745632	    -24.77078415	     -0.43233174	      1.30949079	    -10.11944886	     -4.48503317	    -21.93644470	      8.60363326	     -1.63587895	    -50.32762464	     -0.87838275	    -14.59598934	     15.87562011	     -3.57821760	    -22.58379137	      9.70992200	     -6.98697234	    -12.23362128	    -11.69671047	     -7.70488328	     15.81626184	     89.95437384	      0.00000000	      0.00000000	      6.43366531	     10.51591400	      5.89901174	     51.46127326	     89.95437384	      0.00000000	      0.00000000
      0.94000000	     17.68927164	     -5.01808482	      6.94907086	      0.51571971	      0.93371894	     -1.04584020	      1.00852082	      6.52064862	    -18.79741504	    -24.36684727	     -0.42528171	      1.91204735	    -10.09640083	     -4.22507699	    -20.69544561	      7.99723771	     -2.66141717	    -52.00212085	     -0.90760823	    -12.42465118	     16.21918510	     -3.48664090	    -22.66297769	      9.51352165	     -6.88357076	    -11.57328072	    -11.81362151	     -7.56328368	     16.57489167	     89.95437384	      0.00000000	      0.00000000	      6.05224999	     10.19872677	      6.13796767	     49.74861063	     89.95437384	      0.00000000	      0.00000000
      0.95000000	     17.76781160	     -4.71419737	      6.88526475	      0.53026403	      0.93635028	     -1.04486740	     -0.44855103	      6.50607777	    -18.62775675	    -23.80304729	     -0.41544155	      2.56547869	    -10.01695648	     -3.93564907	    -19.40695535	      7.32172675	     -3.71336388	    -53.47183250	     -0.93325953	     -9.49687924	     16.64736506	     -3.37585944	    -22.76741098	      9.21848644	     -6.89411457	    -10.89528972	    -11.88438603	     -7.47278686	     17.36174691	     89.95437384	      0.00000000	      0.00000000	      5.63099605	      9.98807575	      6.20891075	     48.02355928	     89.95437384	      0.00000000	      0.00000000
